<svg version="1.1" id="Layer_1" xmlns="http://www.w3.org/2000/svg" xmlns:xlink="http://www.w3.org/1999/xlink" x="0px" y="0px"
	 width="300px" height="125px" viewBox="0 0 300 125" style="enable-background:new 0 0 300 125;" xml:space="preserve">
<g>
	<path style="fill:#ffffff;" d="M227.593,5.32H196.59v68.928c0,5.063-1.801,9.396-5.402,12.884
		c-3.488,3.602-7.766,5.401-12.942,5.401c-5.063,0-9.34-1.8-12.828-5.401c-3.487-3.487-5.233-7.82-5.233-12.884V5.32h-31.002v58.461
		c-0.169,7.37-2.476,13.617-7.09,18.904c-4.614,5.178-10.128,7.823-16.598,7.991H60.31c-6.752,0-12.548-2.645-17.387-7.82
		c-4.727-5.346-7.09-11.818-7.09-19.244c0-7.596,2.363-14.066,7.09-19.468c4.839-5.177,10.635-7.822,17.387-7.822h45.183V5.32H60.31
		c-7.596,0-14.798,1.575-21.494,4.726c-6.752,2.814-12.66,6.921-17.724,12.267c-5.121,5.514-9.06,11.704-11.76,18.512
		C6.406,48.083,5,55.679,5,63.612c0,7.822,1.407,15.362,4.333,22.618c2.701,6.81,6.64,12.942,11.76,18.232
		c5.063,5.515,10.972,9.678,17.724,12.547c6.696,3.096,13.898,4.671,21.494,4.671h44.395c6.808-0.281,13.447-1.802,19.805-4.671
		c6.19-2.757,11.76-6.528,16.599-11.422c4.502,5.008,9.735,8.833,15.698,11.59c6.246,3.04,12.829,4.503,19.807,4.503
		c6.977,0,13.56-1.463,19.75-4.503c6.02-2.757,11.254-6.696,15.754-11.758c4.444,5.062,9.679,9.001,15.643,11.758
		c6.358,3.04,13.055,4.503,19.975,4.503c6.359,0,12.491-1.351,18.287-3.938c5.739-2.363,10.804-5.685,15.137-10.072
		c4.387-4.333,7.764-9.397,10.127-15.137C293.762,86.683,295,80.604,295,74.248V5.32h-30.835v68.928c0,5.063-1.8,9.396-5.401,12.884
		c-3.487,3.602-7.821,5.401-12.885,5.401c-4.951,0-9.283-1.8-12.885-5.401c-3.602-3.487-5.401-7.82-5.401-12.884V5.32z"/>
	<path style="fill:#ffffff;" d="M101.554,57.085v-3.039H89.232v18.906h12.716v-3.039H93.17v-5.006h7.651V61.7H93.17v-4.614H101.554z
		"/>
	<path style="fill:#ffffff;" d="M53.22,54.047v3.039h5.571v15.868h3.938V57.085H68.3v-3.039H53.22z"/>
	<path style="fill:#ffffff;" d="M74.658,61.7v-7.653h-3.939v18.906h3.939v-8.045h8.046v8.045h3.939V54.047h-3.939V61.7H74.658z"/>
</g>
</svg>