<?xml version="1.0" standalone="no"?>
<!DOCTYPE svg PUBLIC "-//W3C//DTD SVG 20010904//EN"
 "http://www.w3.org/TR/2001/REC-SVG-20010904/DTD/svg10.dtd">
<svg version="1.0" xmlns="http://www.w3.org/2000/svg"
 width="800.000000pt" height="800.000000pt" viewBox="0 0 800.000000 800.000000"
 preserveAspectRatio="xMidYMid meet">
<metadata>
Created by potrace 1.13, written by Peter Selinger 2001-2015
</metadata>
<g transform="translate(0.000000,800.000000) scale(0.100000,-0.100000)"
fill="#000000" stroke="none">
<path d="M230 4980 l0 -1040 1191 0 1191 0 -4 -187 c-3 -182 -4 -190 -32 -251
-52 -112 -148 -177 -298 -202 -40 -6 -429 -10 -1055 -10 l-993 0 0 -485 0
-486 1238 4 c906 3 1258 7 1317 16 288 44 485 109 636 212 224 151 335 356
360 659 6 78 9 624 7 1465 l-3 1340 -587 3 -588 2 0 -550 0 -550 -605 0 -605
0 0 550 0 550 -585 0 -585 0 0 -1040z"/>
<path d="M4220 5530 l0 -490 590 0 590 0 0 -1630 0 -1630 590 0 590 0 0 1630
0 1630 595 0 595 0 0 490 0 490 -1775 0 -1775 0 0 -490z"/>
</g>
</svg>
