<?xml version="1.0" standalone="no"?>
<!DOCTYPE svg PUBLIC "-//W3C//DTD SVG 20010904//EN"
 "http://www.w3.org/TR/2001/REC-SVG-20010904/DTD/svg10.dtd">
<svg version="1.0" xmlns="http://www.w3.org/2000/svg"
 width="512.000000pt" height="512.000000pt" viewBox="0 0 512.000000 512.000000"
 preserveAspectRatio="xMidYMid meet">
<metadata>
Created by potrace 1.13, written by Peter Selinger 2001-2015
</metadata>
<g transform="translate(0.000000,512.000000) scale(0.100000,-0.100000)"
fill="#000000" stroke="none">
<path d="M320 3842 l0 -962 955 0 c525 0 955 3 955 7 0 5 -180 188 -400 408
l-401 401 75 64 c222 189 469 310 756 371 152 32 437 33 595 1 654 -131 1147
-623 1277 -1275 32 -161 32 -433 0 -594 -131 -657 -640 -1159 -1297 -1279
-150 -28 -434 -25 -575 5 -436 92 -815 346 -1038 696 -25 39 -46 71 -47 73 -2
3 -536 -306 -548 -317 -10 -10 104 -180 199 -297 434 -535 1126 -848 1814
-821 419 17 808 141 1146 366 1106 734 1346 2223 527 3265 -31 39 -111 125
-177 192 -603 603 -1490 808 -2301 532 -287 -98 -585 -276 -803 -482 l-53 -50
-330 330 -329 329 0 -963z"/>
</g>
</svg>
