<?xml version="1.0" standalone="no"?>
<!DOCTYPE svg PUBLIC "-//W3C//DTD SVG 20010904//EN"
 "http://www.w3.org/TR/2001/REC-SVG-20010904/DTD/svg10.dtd">
<svg version="1.0" xmlns="http://www.w3.org/2000/svg"
 width="512.000000pt" height="512.000000pt" viewBox="0 0 512.000000 512.000000"
 preserveAspectRatio="xMidYMid meet">
<metadata>
Created by potrace 1.13, written by Peter Selinger 2001-2015
</metadata>
<g transform="translate(0.000000,512.000000) scale(0.100000,-0.100000)"
fill="#000000" stroke="none">
<path d="M3870 5107 c-27 -8 -184 -158 -673 -646 l-637 -636 -333 332 c-182
182 -348 339 -367 349 -43 22 -133 23 -175 2 -90 -47 -129 -160 -90 -256 11
-25 125 -146 345 -367 182 -182 330 -334 330 -338 0 -4 -397 -7 -883 -7 -972
0 -937 2 -1067 -63 -92 -46 -206 -160 -253 -254 -71 -145 -68 -74 -65 -1483
l3 -1265 27 -75 c72 -197 237 -343 436 -385 101 -22 4083 -22 4184 0 199 42
364 188 436 385 l27 75 3 1265 c3 1409 6 1338 -65 1483 -47 94 -161 208 -253
254 -130 65 -95 63 -1067 63 -486 0 -883 3 -883 7 0 4 281 289 625 633 433
434 629 636 640 662 66 160 -77 316 -245 265z m-1105 -1967 c328 -18 483 -50
638 -132 70 -38 161 -132 204 -213 94 -178 133 -478 133 -1025 0 -666 -58
-960 -222 -1135 -109 -117 -248 -175 -505 -210 -273 -38 -1603 -38 -1874 -1
-448 63 -612 202 -694 591 -33 157 -47 372 -47 745 -1 489 18 689 82 900 101
330 321 449 885 479 218 12 1190 12 1400 1z m1796 -598 c194 -95 234 -350 79
-501 -114 -110 -309 -107 -425 7 -116 114 -119 309 -7 425 69 71 133 97 232
94 54 -2 88 -9 121 -25z m-13 -782 c96 -43 159 -119 182 -218 53 -231 -182
-436 -404 -352 -125 47 -199 154 -199 285 0 135 77 247 200 291 57 20 170 17
221 -6z"/>
</g>
</svg>
